# xmcd
#
# Track frame offsets:
#	150
#	19854
#	36280
#	49121
#	64041
#	82111
#	97150
#	110479
#	131022
#	152117
#	171010
#	219099
#
# Disc length: 3099 seconds
#
# Revision: 3
# Processed by: cddbd v1.5.1PL0 Copyright (c) Steve Scherf et al.
# Submitted via: EasyCDDAExtractor 5.0.6
#
DISCID=a20c190c
DTITLE=Claudinei Mathias - Désio - Aos Amigos
DYEAR=2004
DGENRE=Country
TTITLE0=Introdução
TTITLE1=Dedicatória
TTITLE2=Prego
TTITLE3=Meire
TTITLE4=Ale and Érica
TTITLE5=Jonas e Fia
TTITLE6=Tê and Cá - Milia and Juceli
TTITLE7=Cida
TTITLE8=Marco and Renato
TTITLE9=Laine and Milton
TTITLE10=Brunno and Camila
TTITLE11=Encerramento
EXTD=
EXTT0=
EXTT1=
EXTT2=
EXTT3=
EXTT4=
EXTT5=
EXTT6=
EXTT7=
EXTT8=
EXTT9=
EXTT10=
EXTT11=
PLAYORDER=
